<mxfile host="app.diagrams.net" modified="2021-01-27T19:00:50.017Z" agent="5.0 (Windows NT 10.0; Win64; x64) AppleWebKit/537.36 (KHTML, like Gecko) Chrome/87.0.4280.141 Safari/537.36 OPR/73.0.3856.344" etag="l1mj704LWoGZg6YbTzwz" version="14.2.7" type="github">
  <diagram id="MvAH2nr1GOAVxoUBSjUJ" name="Page-1">
    <mxGraphModel dx="998" dy="559" grid="1" gridSize="10" guides="1" tooltips="1" connect="1" arrows="1" fold="1" page="1" pageScale="1" pageWidth="827" pageHeight="1169" math="0" shadow="0">
      <root>
        <mxCell id="0" />
        <mxCell id="1" parent="0" />
        <mxCell id="dguZKA2NblMMFowujq9e-1" value="" style="rounded=0;whiteSpace=wrap;html=1;" parent="1" vertex="1">
          <mxGeometry y="40" width="800" height="470" as="geometry" />
        </mxCell>
        <mxCell id="dguZKA2NblMMFowujq9e-2" value="Navbar" style="rounded=0;whiteSpace=wrap;html=1;" parent="1" vertex="1">
          <mxGeometry y="40" width="800" height="50" as="geometry" />
        </mxCell>
        <mxCell id="dguZKA2NblMMFowujq9e-3" value="&amp;lt;afbeelding&amp;gt;" style="rounded=0;whiteSpace=wrap;html=1;" parent="1" vertex="1">
          <mxGeometry y="90" width="800" height="240" as="geometry" />
        </mxCell>
        <mxCell id="dguZKA2NblMMFowujq9e-4" value="&amp;lt;text&amp;gt;" style="rounded=0;whiteSpace=wrap;html=1;" parent="1" vertex="1">
          <mxGeometry x="20" y="350" width="360" height="130" as="geometry" />
        </mxCell>
        <mxCell id="dguZKA2NblMMFowujq9e-5" value="&amp;lt;text&amp;gt;" style="rounded=0;whiteSpace=wrap;html=1;" parent="1" vertex="1">
          <mxGeometry x="410" y="350" width="360" height="130" as="geometry" />
        </mxCell>
        <mxCell id="GV1XQshCdNAUDNYMOHp7-1" value="&amp;lt;logo&amp;gt;" style="text;html=1;strokeColor=none;fillColor=none;align=center;verticalAlign=middle;whiteSpace=wrap;rounded=0;" vertex="1" parent="1">
          <mxGeometry x="10" y="55" width="40" height="20" as="geometry" />
        </mxCell>
        <mxCell id="GV1XQshCdNAUDNYMOHp7-2" value="&amp;lt;text&amp;gt;" style="text;html=1;strokeColor=none;fillColor=none;align=center;verticalAlign=middle;whiteSpace=wrap;rounded=0;" vertex="1" parent="1">
          <mxGeometry x="80" y="55" width="40" height="20" as="geometry" />
        </mxCell>
        <mxCell id="GV1XQshCdNAUDNYMOHp7-3" value="&amp;lt;text&amp;gt;" style="text;html=1;strokeColor=none;fillColor=none;align=center;verticalAlign=middle;whiteSpace=wrap;rounded=0;" vertex="1" parent="1">
          <mxGeometry x="120" y="55" width="40" height="20" as="geometry" />
        </mxCell>
        <mxCell id="GV1XQshCdNAUDNYMOHp7-4" value="&amp;lt;text&amp;gt;" style="text;html=1;strokeColor=none;fillColor=none;align=center;verticalAlign=middle;whiteSpace=wrap;rounded=0;" vertex="1" parent="1">
          <mxGeometry x="160" y="55" width="40" height="20" as="geometry" />
        </mxCell>
        <mxCell id="GV1XQshCdNAUDNYMOHp7-5" value="&amp;lt;text&amp;gt;" style="text;html=1;strokeColor=none;fillColor=none;align=center;verticalAlign=middle;whiteSpace=wrap;rounded=0;" vertex="1" parent="1">
          <mxGeometry x="200" y="55" width="40" height="20" as="geometry" />
        </mxCell>
        <mxCell id="GV1XQshCdNAUDNYMOHp7-6" value="&lt;font style=&quot;font-size: 18px&quot;&gt;Informatie&lt;/font&gt;" style="text;html=1;strokeColor=none;fillColor=none;align=center;verticalAlign=middle;whiteSpace=wrap;rounded=0;" vertex="1" parent="1">
          <mxGeometry x="390" y="10" width="40" height="20" as="geometry" />
        </mxCell>
        <mxCell id="GV1XQshCdNAUDNYMOHp7-7" style="edgeStyle=orthogonalEdgeStyle;rounded=0;orthogonalLoop=1;jettySize=auto;html=1;exitX=1;exitY=0.25;exitDx=0;exitDy=0;entryX=0.75;entryY=0;entryDx=0;entryDy=0;" edge="1" parent="1" source="GV1XQshCdNAUDNYMOHp7-6" target="GV1XQshCdNAUDNYMOHp7-6">
          <mxGeometry relative="1" as="geometry" />
        </mxCell>
      </root>
    </mxGraphModel>
  </diagram>
</mxfile>
